<svg xmlns="http://www.w3.org/2000/svg" width="1500" height="1200" viewBox="0 0 1500 1200">
<defs>
  <marker id="arrow" markerWidth="10" markerHeight="10" refX="8" refY="3" orient="auto" markerUnits="strokeWidth">
    <path d="M0,0 L0,6 L9,3 z" fill="#1a1a1a"/>
  </marker>
</defs>
<rect x="0" y="0" width="1500" height="1200" fill="#ffffff"/>
<rect x="300" y="40" width="950" height="1120" rx="10" fill="#fbfbfb" stroke="#333333" stroke-width="2"/>
<text x="775.0" y="72" font-family="Calibri, Arial, sans-serif" font-size="17" font-weight="bold" fill="#1a1a1a" text-anchor="middle">Car Rental Portal — System Boundary</text>
<ellipse cx="520" cy="130" rx="115.0" ry="29.0" fill="#eef3fb" stroke="#2b3a55" stroke-width="1.6"/>
<text x="520" y="134.16666666666666" font-family="Calibri, Arial, sans-serif" font-size="12.5" font-weight="600" fill="#1c2438" text-anchor="middle">Browse Car Listings</text>
<ellipse cx="520" cy="270" rx="115.0" ry="29.0" fill="#eef3fb" stroke="#2b3a55" stroke-width="1.6"/>
<text x="520" y="265.9166666666667" font-family="Calibri, Arial, sans-serif" font-size="12.5" font-weight="600" fill="#1c2438" text-anchor="middle">Search Cars</text>
<text x="520" y="282.4166666666667" font-family="Calibri, Arial, sans-serif" font-size="12.5" font-weight="600" fill="#1c2438" text-anchor="middle">(keyword / filter)</text>
<ellipse cx="520" cy="410" rx="115.0" ry="29.0" fill="#eef3fb" stroke="#2b3a55" stroke-width="1.6"/>
<text x="520" y="414.1666666666667" font-family="Calibri, Arial, sans-serif" font-size="12.5" font-weight="600" fill="#1c2438" text-anchor="middle">View Vehicle Details</text>
<ellipse cx="520" cy="550" rx="115.0" ry="29.0" fill="#eef3fb" stroke="#2b3a55" stroke-width="1.6"/>
<text x="520" y="545.9166666666666" font-family="Calibri, Arial, sans-serif" font-size="12.5" font-weight="600" fill="#1c2438" text-anchor="middle">Use Smart Car Finder</text>
<text x="520" y="562.4166666666666" font-family="Calibri, Arial, sans-serif" font-size="12.5" font-weight="600" fill="#1c2438" text-anchor="middle">(Greedy Algorithm)</text>
<ellipse cx="520" cy="690" rx="115.0" ry="29.0" fill="#eef3fb" stroke="#2b3a55" stroke-width="1.6"/>
<text x="520" y="694.1666666666666" font-family="Calibri, Arial, sans-serif" font-size="12.5" font-weight="600" fill="#1c2438" text-anchor="middle">Chat with AI Assistant</text>
<ellipse cx="520" cy="830" rx="115.0" ry="29.0" fill="#eef3fb" stroke="#2b3a55" stroke-width="1.6"/>
<text x="520" y="834.1666666666666" font-family="Calibri, Arial, sans-serif" font-size="12.5" font-weight="600" fill="#1c2438" text-anchor="middle">Register / Login</text>
<ellipse cx="520" cy="970" rx="115.0" ry="29.0" fill="#eef3fb" stroke="#2b3a55" stroke-width="1.6"/>
<text x="520" y="974.1666666666666" font-family="Calibri, Arial, sans-serif" font-size="12.5" font-weight="600" fill="#1c2438" text-anchor="middle">Submit Contact Query</text>
<ellipse cx="900" cy="160" rx="125.0" ry="29.0" fill="#eef3fb" stroke="#2b3a55" stroke-width="1.6"/>
<text x="900" y="155.91666666666666" font-family="Calibri, Arial, sans-serif" font-size="12.5" font-weight="600" fill="#1c2438" text-anchor="middle">Book a Car</text>
<text x="900" y="172.41666666666666" font-family="Calibri, Arial, sans-serif" font-size="12.5" font-weight="600" fill="#1c2438" text-anchor="middle">(select dates)</text>
<ellipse cx="900" cy="310" rx="125.0" ry="29.0" fill="#eef3fb" stroke="#2b3a55" stroke-width="1.6"/>
<text x="900" y="314.1666666666667" font-family="Calibri, Arial, sans-serif" font-size="12.5" font-weight="600" fill="#1c2438" text-anchor="middle">View / Track My Bookings</text>
<ellipse cx="900" cy="460" rx="125.0" ry="29.0" fill="#eef3fb" stroke="#2b3a55" stroke-width="1.6"/>
<text x="900" y="455.9166666666667" font-family="Calibri, Arial, sans-serif" font-size="12.5" font-weight="600" fill="#1c2438" text-anchor="middle">Chat-based Booking</text>
<text x="900" y="472.4166666666667" font-family="Calibri, Arial, sans-serif" font-size="12.5" font-weight="600" fill="#1c2438" text-anchor="middle">(AI books on user's behalf)</text>
<ellipse cx="900" cy="610" rx="125.0" ry="29.0" fill="#eef3fb" stroke="#2b3a55" stroke-width="1.6"/>
<text x="900" y="614.1666666666666" font-family="Calibri, Arial, sans-serif" font-size="12.5" font-weight="600" fill="#1c2438" text-anchor="middle">Post a Testimonial</text>
<ellipse cx="900" cy="760" rx="125.0" ry="29.0" fill="#eef3fb" stroke="#2b3a55" stroke-width="1.6"/>
<text x="900" y="764.1666666666666" font-family="Calibri, Arial, sans-serif" font-size="12.5" font-weight="600" fill="#1c2438" text-anchor="middle">Update Profile / Password</text>
<ellipse cx="1140" cy="130" rx="115.0" ry="29.0" fill="#eef3fb" stroke="#2b3a55" stroke-width="1.6"/>
<text x="1140" y="125.91666666666667" font-family="Calibri, Arial, sans-serif" font-size="12.5" font-weight="600" fill="#1c2438" text-anchor="middle">Manage Vehicles</text>
<text x="1140" y="142.41666666666669" font-family="Calibri, Arial, sans-serif" font-size="12.5" font-weight="600" fill="#1c2438" text-anchor="middle">(Add / Edit / Delete)</text>
<ellipse cx="1140" cy="278" rx="115.0" ry="29.0" fill="#eef3fb" stroke="#2b3a55" stroke-width="1.6"/>
<text x="1140" y="282.1666666666667" font-family="Calibri, Arial, sans-serif" font-size="12.5" font-weight="600" fill="#1c2438" text-anchor="middle">Manage Brands</text>
<ellipse cx="1140" cy="426" rx="115.0" ry="29.0" fill="#eef3fb" stroke="#2b3a55" stroke-width="1.6"/>
<text x="1140" y="421.9166666666667" font-family="Calibri, Arial, sans-serif" font-size="12.5" font-weight="600" fill="#1c2438" text-anchor="middle">Manage Bookings</text>
<text x="1140" y="438.4166666666667" font-family="Calibri, Arial, sans-serif" font-size="12.5" font-weight="600" fill="#1c2438" text-anchor="middle">(Confirm / Cancel)</text>
<ellipse cx="1140" cy="574" rx="115.0" ry="29.0" fill="#eef3fb" stroke="#2b3a55" stroke-width="1.6"/>
<text x="1140" y="578.1666666666666" font-family="Calibri, Arial, sans-serif" font-size="12.5" font-weight="600" fill="#1c2438" text-anchor="middle">Manage Registered Users</text>
<ellipse cx="1140" cy="722" rx="115.0" ry="29.0" fill="#eef3fb" stroke="#2b3a55" stroke-width="1.6"/>
<text x="1140" y="726.1666666666666" font-family="Calibri, Arial, sans-serif" font-size="12.5" font-weight="600" fill="#1c2438" text-anchor="middle">Moderate Testimonials</text>
<ellipse cx="1140" cy="870" rx="115.0" ry="29.0" fill="#eef3fb" stroke="#2b3a55" stroke-width="1.6"/>
<text x="1140" y="874.1666666666666" font-family="Calibri, Arial, sans-serif" font-size="12.5" font-weight="600" fill="#1c2438" text-anchor="middle">View Dashboard Analytics</text>
<circle cx="90" cy="270.0" r="10.0" fill="#ffffff" stroke="#1a1a1a" stroke-width="1.6"/>
<line x1="90" y1="280.0" x2="90" y2="308.0" stroke="#1a1a1a" stroke-width="1.6"/>
<line x1="74.0" y1="288.0" x2="106.0" y2="288.0" stroke="#1a1a1a" stroke-width="1.6"/>
<line x1="90" y1="308.0" x2="78.0" y2="328.0" stroke="#1a1a1a" stroke-width="1.6"/>
<line x1="90" y1="308.0" x2="102.0" y2="328.0" stroke="#1a1a1a" stroke-width="1.6"/>
<text x="90" y="344.0" font-family="Calibri, Arial, sans-serif" font-size="12.5" font-weight="bold" fill="#1a1a1a" text-anchor="middle">Guest</text>
<text x="90" y="358.0" font-family="Calibri, Arial, sans-serif" font-size="12.5" font-weight="bold" fill="#1a1a1a" text-anchor="middle">(Visitor)</text>
<circle cx="90" cy="770.0" r="10.0" fill="#ffffff" stroke="#1a1a1a" stroke-width="1.6"/>
<line x1="90" y1="780.0" x2="90" y2="808.0" stroke="#1a1a1a" stroke-width="1.6"/>
<line x1="74.0" y1="788.0" x2="106.0" y2="788.0" stroke="#1a1a1a" stroke-width="1.6"/>
<line x1="90" y1="808.0" x2="78.0" y2="828.0" stroke="#1a1a1a" stroke-width="1.6"/>
<line x1="90" y1="808.0" x2="102.0" y2="828.0" stroke="#1a1a1a" stroke-width="1.6"/>
<text x="90" y="844.0" font-family="Calibri, Arial, sans-serif" font-size="12.5" font-weight="bold" fill="#1a1a1a" text-anchor="middle">Registered</text>
<text x="90" y="858.0" font-family="Calibri, Arial, sans-serif" font-size="12.5" font-weight="bold" fill="#1a1a1a" text-anchor="middle">User</text>
<circle cx="1430" cy="410.0" r="10.0" fill="#ffffff" stroke="#1a1a1a" stroke-width="1.6"/>
<line x1="1430" y1="420.0" x2="1430" y2="448.0" stroke="#1a1a1a" stroke-width="1.6"/>
<line x1="1414.0" y1="428.0" x2="1446.0" y2="428.0" stroke="#1a1a1a" stroke-width="1.6"/>
<line x1="1430" y1="448.0" x2="1418.0" y2="468.0" stroke="#1a1a1a" stroke-width="1.6"/>
<line x1="1430" y1="448.0" x2="1442.0" y2="468.0" stroke="#1a1a1a" stroke-width="1.6"/>
<text x="1430" y="484.0" font-family="Calibri, Arial, sans-serif" font-size="12.5" font-weight="bold" fill="#1a1a1a" text-anchor="middle">Admin</text>
<line x1="104" y1="278" x2="405.0" y2="130" stroke="#555555" stroke-width="1.2"/>
<line x1="104" y1="278" x2="405.0" y2="270" stroke="#555555" stroke-width="1.2"/>
<line x1="104" y1="278" x2="405.0" y2="410" stroke="#555555" stroke-width="1.2"/>
<line x1="104" y1="278" x2="405.0" y2="550" stroke="#555555" stroke-width="1.2"/>
<line x1="104" y1="278" x2="405.0" y2="690" stroke="#555555" stroke-width="1.2"/>
<line x1="104" y1="278" x2="405.0" y2="830" stroke="#555555" stroke-width="1.2"/>
<line x1="104" y1="278" x2="405.0" y2="970" stroke="#555555" stroke-width="1.2"/>
<line x1="90" y1="750" x2="90" y2="360" stroke="#555555" stroke-width="1.4" stroke-dasharray="4,3" marker-end="url(#arrow)"/>
<rect x="39.980000000000004" y="540.8" width="80.03999999999999" height="17.25" fill="#ffffff"/>
<text x="80.0" y="553.45" font-family="Calibri, Arial, sans-serif" font-size="11.5" font-weight="normal" fill="#333333" text-anchor="middle">&lt;&lt;inherits&gt;&gt;</text>
<line x1="104" y1="778" x2="775.0" y2="160" stroke="#555555" stroke-width="1.2"/>
<line x1="104" y1="778" x2="775.0" y2="310" stroke="#555555" stroke-width="1.2"/>
<line x1="104" y1="778" x2="775.0" y2="460" stroke="#555555" stroke-width="1.2"/>
<line x1="104" y1="778" x2="775.0" y2="610" stroke="#555555" stroke-width="1.2"/>
<line x1="104" y1="778" x2="775.0" y2="760" stroke="#555555" stroke-width="1.2"/>
<line x1="1416" y1="418" x2="1255.0" y2="130" stroke="#555555" stroke-width="1.2"/>
<line x1="1416" y1="418" x2="1255.0" y2="278" stroke="#555555" stroke-width="1.2"/>
<line x1="1416" y1="418" x2="1255.0" y2="426" stroke="#555555" stroke-width="1.2"/>
<line x1="1416" y1="418" x2="1255.0" y2="574" stroke="#555555" stroke-width="1.2"/>
<line x1="1416" y1="418" x2="1255.0" y2="722" stroke="#555555" stroke-width="1.2"/>
<line x1="1416" y1="418" x2="1255.0" y2="870" stroke="#555555" stroke-width="1.2"/>
<text x="750.0" y="1182" font-family="Calibri, Arial, sans-serif" font-size="14" font-weight="bold" fill="#111111" text-anchor="middle">Figure 3.1: Use Case Diagram of Car Rental Portal</text>
</svg>